<?xml version="1.0" encoding="UTF-8"?>
<svg xmlns="http://www.w3.org/2000/svg" xmlns:xlink="http://www.w3.org/1999/xlink" version="1.1" id="Capa_1" x="0px" y="0px" viewBox="0 0 512.003 512.003" style="enable-background:new 0 0 512.003 512.003;" xml:space="preserve" width="512" height="512">
<g>
	<path style="fill:#E4996D;" d="M451.712,435.171c-1.17,27.78-24.2,50.09-52,50.43c-12.11,0.14-23.28-3.79-32.25-10.52&#10;&#9;&#9;c-30.12,25.36-69.01,10.51-111.46,10.51c-2.08,0-4.16,0.03-6.23,0.1v-245.4h168.88c-0.08,0.22-0.16,0.43-0.24,0.65&#10;&#9;&#9;c6.96,18.76,10.77,39.05,10.77,60.24c0,1.08-0.01,2.15-0.03,3.23c-0.39,21.34,4.94,83.69,15.6,102.18&#10;&#9;&#9;C449.562,414.941,452.151,424.742,451.712,435.171z"/>
	<path style="fill:#D97C41;" d="M256.002,240.291v219.76c-10.14,9.49-20.68,18.69-31.31,27.49c-30.17,2.98-57.62,6.51-80.15-12.46&#10;&#9;&#9;c-8.97,6.73-20.14,10.66-32.25,10.52c-27.8-0.34-50.83-22.65-52-50.43c-0.44-10.43,2.15-20.23,6.96-28.58&#10;&#9;&#9;c10.66-18.49,15.99-80.84,15.6-102.18c-0.02-1.08-0.03-2.15-0.03-3.23c0-21.19,3.81-41.48,10.77-60.24&#10;&#9;&#9;c-0.08-0.22-0.16-0.43-0.24-0.65H256.002z"/>
	<path style="fill:#EFEDFE;" d="M376.062,504.471h-78.7v-0.28l-39.15-15.96l-6.62,2.43l-7.21,2.64&#10;&#9;&#9;c-17.62-21.02-44.61-72.57,3.24-161.8c2.78-0.14,5.57-0.21,8.38-0.21h0.18c74.289,0.08,137.63,46.93,162.14,112.71&#10;&#9;&#9;C429.252,473.301,407.332,504.471,376.062,504.471z"/>
	<path style="fill:#DEDEF9;" d="M251.591,490.662l-36.95,13.53l-0.18,0.28h-78.52c-31.27,0-53.19-31.17-42.26-60.47&#10;&#9;&#9;c24.53-65.83,87.95-112.71,162.32-112.71h0.18C246.301,366.932,234.872,429.221,251.591,490.662z"/>
	<circle style="fill:#FFCBBE;" cx="414.119" cy="256.001" r="45.176"/>
	<path style="fill:#FF9EB1;" d="M346.582,320.231l-44.26,184.24h-46.48c0,0-71.96-99.09,3.6-184.24H346.582z"/>
	<path style="fill:#FF758F;" d="M255.841,504.471h-46.43l-39.58-184.24h89.61C248.582,354.971,230.742,431.771,255.841,504.471z"/>
	<path style="fill:#D2D2FF;" d="M168.79,399.419l-14.935,41.072c-1.992,5.477-0.631,11.612,3.49,15.733l43.848,43.848&#10;&#9;&#9;c7.885,7.885,21.311,4.715,24.837-5.863l5.419-16.257c1.258-3.774,0.965-7.893-0.814-11.452l-34.332-68.663&#10;&#9;&#9;C190.414,386.058,173.29,387.043,168.79,399.419z"/>
	<path style="fill:#DEDEF9;" d="M343.213,399.419l14.935,41.072c1.992,5.477,0.631,11.612-3.49,15.733l-43.848,43.848&#10;&#9;&#9;c-7.885,7.885-21.311,4.715-24.837-5.863l-5.419-16.257c-1.258-3.774-0.965-7.893,0.814-11.452l34.332-68.663&#10;&#9;&#9;C321.589,386.058,338.713,387.043,343.213,399.419z"/>
	<circle style="fill:#FFDDCF;" cx="97.884" cy="256.001" r="45.176"/>
	<path style="fill:#FFDDCF;" d="M414.122,256.001c0,21.26-4.2,41.54-11.81,60.06c-23.64,57.54-80.24,98.06-146.31,98.06&#10;&#9;&#9;c-13.42,0-26.45-1.67-38.88-4.82h-0.01c0,0-0.01,0-0.02-0.01c-2.2-1.26-207.04-119.35-18.39-294.88c3.39-3.15,6.59-6.22,9.6-9.2&#10;&#9;&#9;c15.05-4.76,31.08-7.33,47.7-7.33C343.332,97.881,414.122,168.671,414.122,256.001z"/>
	<path style="fill:#FFCBBE;" d="M217.111,409.301c-48.81-12.34-88.58-47.39-107.42-93.24c-7.61-18.52-11.81-38.8-11.81-60.06&#10;&#9;&#9;c0-66.68,41.26-123.71,99.65-146.95l1.17,5.36C198.702,114.412,84.341,254.742,217.111,409.301z"/>
	<ellipse style="fill:#FFA1AC;" cx="177.625" cy="272.238" rx="28.919" ry="23.03"/>
	<ellipse style="fill:#FFA1AC;" cx="334.378" cy="272.238" rx="28.92" ry="23.03"/>
	<path style="fill:#E4996D;" d="M429.182,190.702c0,3.51-0.09,7.01-0.28,10.47c-0.36,6.9-6.06,12.26-12.88,12.06&#10;&#9;&#9;c-19.45-1.84-111.16,7.58-160.02-53.07c-13.44,11.82-25.39,20.94-36.25,27.98c-91.51-59.04,9.51-178.44,9.51-178.44&#10;&#9;&#9;c8.71-1.43,17.65-2.17,26.74-2.17C351.642,7.531,429.182,89.531,429.182,190.702z"/>
	<path style="fill:#D97C41;" d="M219.752,188.142c-42.78,27.72-68.69,23.24-102.59,25.21l-21.45,0.15&#10;&#9;&#9;c-6.71,0.05-12.23-5.27-12.6-12.06c-0.19-3.55-0.29-7.14-0.29-10.74c0-91.55,63.49-167.4,146.44-181&#10;&#9;&#9;C209.191,48.352,182.691,120.941,219.752,188.142z"/>
	
		<ellipse transform="matrix(0.7071 -0.7071 0.7071 0.7071 -186.5006 152.1032)" style="fill:#5AD6FF;" cx="90.354" cy="301.178" rx="15.059" ry="15.059"/>
	
		<ellipse transform="matrix(0.7071 -0.7071 0.7071 0.7071 -89.4668 386.3635)" style="fill:#A4E7FF;" cx="421.649" cy="301.178" rx="15.059" ry="15.059"/>
	<path style="fill:#495560;" d="M421.649,173.178H90.354c-12.475,0-22.588-10.113-22.588-22.588v0&#10;&#9;&#9;c0-12.475,10.113-22.588,22.588-22.588h331.294c12.475,0,22.588,10.113,22.588,22.588v0&#10;&#9;&#9;C444.237,163.065,434.124,173.178,421.649,173.178z"/>
	<path style="fill:#5F7080;" d="M323.761,150.591c0,16.97-6.229,32.48-16.54,44.36c-121.96,4.25-70.95-109.21-70.95-109.21&#10;&#9;&#9;c6.24-1.9,12.87-2.92,19.73-2.92C293.432,82.821,323.761,113.162,323.761,150.591z"/>
	<path style="fill:#546370;" d="M307.221,194.952c-12.42,14.33-30.76,23.4-51.22,23.4c-37.43,0-67.76-30.34-67.76-67.76&#10;&#9;&#9;c0-30.57,20.23-56.41,48.03-64.85C234.482,114.182,239.872,171.611,307.221,194.952z"/>
	<path style="fill:#546370;" d="M278.591,150.591c0,8.83-5.07,16.48-12.46,20.19c-36.4-2.63-24.06-37.97-24.06-37.97&#10;&#9;&#9;c3.84-3.02,8.67-4.81,13.93-4.81C268.482,128.001,278.591,138.111,278.591,150.591z"/>
	<path style="fill:#495560;" d="M266.131,170.781c-3.05,1.54-6.49,2.4-10.13,2.4c-12.48,0-22.59-10.12-22.59-22.59&#10;&#9;&#9;c0-7.22,3.39-13.65,8.66-17.78C246.522,145.901,253.982,159.221,266.131,170.781z"/>
</g>
<g>
	<path style="fill:none;stroke:#000000;stroke-width:15;stroke-linecap:round;stroke-linejoin:round;stroke-miterlimit:10;" d="&#10;&#9;&#9;M97.732,483.369c-32.691-9.958-47.267-47.608-30.48-76.75c9.33-16.18,14.57-65.93,15.48-92.42"/>
	<path style="fill:none;stroke:#000000;stroke-width:15;stroke-linecap:round;stroke-linejoin:round;stroke-miterlimit:10;" d="&#10;&#9;&#9;M429.272,314.199c0.91,26.49,6.15,76.24,15.48,92.42c16.788,29.143,2.21,66.793-30.48,76.75"/>
	<path style="fill:none;stroke:#000000;stroke-width:15;stroke-linecap:round;stroke-linejoin:round;stroke-miterlimit:10;" d="&#10;&#9;&#9;M365.362,370.229c23.65,19.27,42.11,44.68,52.96,73.8c10.93,29.3-10.99,60.47-42.26,60.47h-240.12&#10;&#9;&#9;c-31.27,0-53.19-31.17-42.26-60.47c10.85-29.12,29.31-54.53,52.96-73.8"/>
	<path style="fill:none;stroke:#000000;stroke-width:15;stroke-linecap:round;stroke-linejoin:round;stroke-miterlimit:10;" d="&#10;&#9;&#9;M407.702,211.299c27.287-3.898,51.59,17.293,51.59,44.73c0,17.14-9.54,32.05-23.61,39.71"/>
	<path style="fill:none;stroke:#000000;stroke-width:15;stroke-linecap:round;stroke-linejoin:round;stroke-miterlimit:10;" d="&#10;&#9;&#9;M199.182,403.629l31.45,62.9c1.78,3.56,2.07,7.68,0.82,11.45l-5.42,16.26c-3.53,10.58-16.95,13.75-24.84,5.86l-43.85-43.85&#10;&#9;&#9;c-4.12-4.12-5.48-10.25-3.49-15.73l14.94-41.07c1.25-3.43,3.46-5.99,6.14-7.64"/>
	<path style="fill:none;stroke:#000000;stroke-width:15;stroke-linecap:round;stroke-linejoin:round;stroke-miterlimit:10;" d="&#10;&#9;&#9;M337.072,391.809c2.68,1.65,4.89,4.21,6.14,7.64l14.94,41.07c1.99,5.48,0.63,11.61-3.49,15.73l-43.85,43.85&#10;&#9;&#9;c-7.89,7.89-21.31,4.72-24.84-5.86l-5.42-16.26c-1.25-3.77-0.96-7.89,0.82-11.45l31.45-62.9"/>
	<path style="fill:none;stroke:#000000;stroke-width:15;stroke-linecap:round;stroke-linejoin:round;stroke-miterlimit:10;" d="&#10;&#9;&#9;M76.322,295.739c-14.07-7.66-23.61-22.57-23.61-39.71c0-27.452,24.319-48.626,51.59-44.73"/>
	<path style="fill:none;stroke:#000000;stroke-width:15;stroke-linecap:round;stroke-linejoin:round;stroke-miterlimit:10;" d="&#10;&#9;&#9;M406.802,303.719c-27.409,86.554-122.39,132.784-207.62,99.91h-0.01c-44.607-17.189-79.422-53.97-93.97-99.91"/>
	<path style="fill:none;stroke:#000000;stroke-width:15;stroke-linecap:round;stroke-linejoin:round;stroke-miterlimit:10;" d="&#10;&#9;&#9;M101.882,291.529c0-0.888-4-14.884-4-35.5c0-15.059,2.093-30.536,6.62-45.41"/>
	<path style="fill:none;stroke:#000000;stroke-width:15;stroke-linecap:round;stroke-linejoin:round;stroke-miterlimit:10;" d="&#10;&#9;&#9;M410.122,291.519c6.377-27.772,4.879-56.374-2.74-81.31v-0.01"/>
	<path style="fill:none;stroke:#000000;stroke-width:15;stroke-linecap:round;stroke-linejoin:round;stroke-miterlimit:10;" d="&#10;&#9;&#9;M208.244,247.205c0-7.602-6.163-13.765-13.765-13.765c-7.602,0-13.765,6.163-13.765,13.765"/>
	<path style="fill:none;stroke:#000000;stroke-width:15;stroke-linecap:round;stroke-linejoin:round;stroke-miterlimit:10;" d="&#10;&#9;&#9;M303.759,247.205c0-7.602,6.163-13.765,13.765-13.765c7.602,0,13.765,6.163,13.765,13.765"/>
	<path style="fill:none;stroke:#000000;stroke-width:15;stroke-linecap:round;stroke-linejoin:round;stroke-miterlimit:10;" d="&#10;&#9;&#9;M241.4,263.294c7.73,8.869,21.473,8.869,29.202,0"/>
	<path style="fill:none;stroke:#000000;stroke-width:15;stroke-linecap:round;stroke-linejoin:round;stroke-miterlimit:10;" d="&#10;&#9;&#9;M193.552,19.665c90.577-36.554,193.158,12.066,225.77,108.364"/>
	<path style="fill:none;stroke:#000000;stroke-width:15;stroke-linecap:round;stroke-linejoin:round;stroke-miterlimit:10;" d="&#10;&#9;&#9;M92.682,128.029c13.348-39.415,39.429-72.551,73.085-94.032"/>
	<path style="fill:none;stroke:#000000;stroke-width:15;stroke-linecap:round;stroke-linejoin:round;stroke-miterlimit:10;" d="&#10;&#9;&#9;M428.502,172.139c1.08,12.74,0.88,25.865-0.64,38.56c-0.01,0.05-0.01,0.09-0.02,0.14v0.01"/>
	<path style="fill:none;stroke:#000000;stroke-width:15;stroke-linecap:round;stroke-linejoin:round;stroke-miterlimit:10;" d="&#10;&#9;&#9;M429.182,210.849c-4.337,0-12.888-0.313-13.16-0.35c-13.628-1.267-63.909,2.95-108.81-15.5"/>
	<path style="fill:none;stroke:#000000;stroke-width:15;stroke-linecap:round;stroke-linejoin:round;stroke-miterlimit:10;" d="&#10;&#9;&#9;M83.502,172.139c-1.086,12.816-0.876,25.94,0.66,38.71c1.913-0.358,0.033-0.23,33-0.23c29.66-1.7,53.2,1.47,87.28-16.04"/>
	
		<ellipse transform="matrix(0.7071 -0.7071 0.7071 0.7071 -186.5203 152.1113)" style="fill:none;stroke:#000000;stroke-width:15;stroke-linecap:round;stroke-linejoin:round;stroke-miterlimit:10;" cx="90.354" cy="301.206" rx="15.059" ry="15.059"/>
	
		<ellipse transform="matrix(0.7071 -0.7071 0.7071 0.7071 -89.4865 386.3717)" style="fill:none;stroke:#000000;stroke-width:15;stroke-linecap:round;stroke-linejoin:round;stroke-miterlimit:10;" cx="421.649" cy="301.206" rx="15.059" ry="15.059"/>
	<path style="fill:none;stroke:#000000;stroke-width:15;stroke-linecap:round;stroke-linejoin:round;stroke-miterlimit:10;" d="&#10;&#9;&#9;M319.902,128.029h101.75c12.47,0,22.59,10.11,22.59,22.59c0,12.467-10.123,22.59-22.59,22.59h-101.75"/>
	
		<line style="fill:none;stroke:#000000;stroke-width:15;stroke-linecap:round;stroke-linejoin:round;stroke-miterlimit:10;" x1="150.252" y1="128.029" x2="192.102" y2="128.029"/>
	<path style="fill:none;stroke:#000000;stroke-width:15;stroke-linecap:round;stroke-linejoin:round;stroke-miterlimit:10;" d="&#10;&#9;&#9;M192.102,173.209H90.352c-12.47,0-22.59-10.12-22.59-22.59c0-12.467,10.123-22.59,22.59-22.59h29.406"/>
	
		<circle style="fill:none;stroke:#000000;stroke-width:15;stroke-linecap:round;stroke-linejoin:round;stroke-miterlimit:10;" cx="256.002" cy="150.617" r="67.765"/>
	
		<ellipse transform="matrix(0.1602 -0.9871 0.9871 0.1602 66.3221 379.1871)" style="fill:none;stroke:#000000;stroke-width:15;stroke-linecap:round;stroke-linejoin:round;stroke-miterlimit:10;" cx="256.002" cy="150.617" rx="22.588" ry="22.588"/>
</g>















</svg>
