<svg id="Шар_1" enable-background="new 0 0 512 512" height="512" viewBox="0 0 512 512" width="512" xmlns="http://www.w3.org/2000/svg"><g><g><path d="m244 477.1-46.5-150.9c-.9-2.7 2.6-7 7.7-4 .1.1 15.7 31.9 51.8 30 27.8-1.5 44.4-24.8 48.5-26.9 2.5-1.4 6.6 1.7 5.7 4.6l-42.4 146c-3.8 8.1-16.8 11.1-24.8 1.2z" fill="#cbe6f9"/><path d="m356.9 139.7c-7.5-2.5-15.1 8.6-25.8 2.1-7.1-4.3-7.1-9.8-9.5-23.6-2.3-13.4-12.1-38.6-27-38.5-7.5 0-15.1 21.3-19.5 29.2-21.6 39.3-108.2 21.2-124.5 30.1-14.1 7.7-17.2 36.6 17.8 33.9 1.5-.1.2 28 2.2 36.9 6 27.3 25 46.6 48 56.6.3 9.3.7 30-1.3 37.3-2.5 9.2-17.1 16.3-17.1 16.2 9.3 17.8 28 31.5 53.1 32.5 30.5 1.3 49-21.5 55.3-30.7 0 0-15.4-9.4-18.3-17.2-3.1-8.4-3-27-2.7-37 8.2-3.5 15.7-8.5 22.1-15.1 34.8-35.7 25.8-79.9 25.8-79.9s21.2 2.7 28.3-6.9c7.4-10 5.4-21.8-6.9-25.9z" fill="#fddfbe"/><path d="m374.4 10.5c-25.5-13.8-48.2-3.4-59.9 14.5-13.3-10.8-31.3-17.8-55.4-18.1-126.2-1.4-103.8 130-98.4 130.5 33.5 3 107.9 10.1 123.8-35.9 9.3-27.1 26.3-31.6 37.7 33 2.4 14.3 29.9 10.3 29.1 8.1 0 0 2.4-21.3-1.5-47 41.6 1.7 67.2-59.3 24.6-85.1z" fill="#f2b882"/><path d="m193.8 309.2 50.1 163.3c5.1 11.4 17.4 9.2 19.9 1l49.8-167.9s20.2-1.8 23.7 7.5c1.7 4.5-1.8 12.6-1.8 12.6s71.7 19.4 93.2 72.5c6.8 16.9 6.3 86.3 6.3 86.3-.2 21.3-9.8 20.8-9.8 20.8s-294.4.5-344.4-.7c-6.3-.1-7.3-7.9-7.5-13.1-.9-18.2.6-73.4.6-73.4 6.1-63.4 98.7-91.3 98.7-91.3s-8.8-14.2 7.2-20.4c8.7-3.4 14 2.8 14 2.8z" fill="#fff"/><path d="m136.8 442.8c25.8-.1 25.8-39.3 0-39.4-25.9.1-25.9 39.3 0 39.4z" fill="#e1e3f0"/></g><g fill="#455665"><path d="m232.8 166.7c-.2-10.5-15.8-10.5-16 0 .2 10.5 15.8 10.5 16 0z"/><path d="m285.8 174.7c10.5-.2 10.5-15.8 0-16-10.5.2-10.5 15.8 0 16z"/><path d="m285.2 215.5c4.1-6.4-5.3-12.7-9.7-6.4-4.5 6.8-12.1 10.9-20.3 10.9-8.1 0-15.6-4-20.2-10.7-4.4-6.3-13.8.1-9.6 6.5 13.5 21 46.5 20.8 59.8-.3z"/><path d="m378.6 337.5c-.2-32.7-26.9-59.2-59.6-59.2h-23c0-4.1 0-7.3 0-7.4 34.2-17.5 51.5-53.1 48.4-92.4h6.5c28.7-1.2 30.5-39.5 5.5-45.5 0-7.4 0-32.4-.2-32.7 28.2-3.9 48.2-34.3 40.5-61.8-8.8-38.8-61.6-50.9-86.5-20.7-66.4-45.5-162.1 1.4-162.8 85.9-.6 11.9 1.4 22.5 6.6 29.8-26.9 9.7-17.8 48 10.9 45.1-3 39.3 14.2 75 48.4 92.4v7.4h-22.7c-33.1 0-60 27.2-59.6 60.3-63.1 35.7-61.9 79.8-61.6 84.4l-.1 69.1c0 10.9 8.9 19.8 19.8 19.8h333.3c10.9 0 19.8-8.9 19.8-19.8l.1-69.1c.3-4.7 1.5-49.7-63.7-85.6zm-59.6-47.6c24.2 0 44.3 18 47.5 41.4-6.4-3-13.3-6-20.9-8.8 5.1-16-12.3-23.7-28.7-22.2-2.5.2-4.5 1.9-5.2 4.1-.1.2-.8 2.6-2 6.6-7.7-.6-13.7-7-13.7-14.8 0 0 0-2.7 0-6.3zm62.3-219.4c-5.7 9.6-15.2 16.1-26 18.1-3.8-25.5-16.9-48-35.7-63.9 31.6-33.5 84.7 5.5 61.7 45.8zm-222.2 33.6c4.9-123.3 181.4-121.7 185.6-.2l.1 29.7c.2 3.4-1.1 4.6-2.2 5.2-34.5 7.1-11.5-55.3-40-60.2-15.3-3.2-18.7 8.2-21.1 16.6-9.9 40.6-56.9 40-110.6 36.6-10.2-3.1-12.1-13.7-11.8-27.7zm17.4 87.6v-29.4c-.2-7.6-11.4-7.7-11.6 0v4.6h-3.9c-15.1-.4-15.2-22.6 0-23 0 0 16.5 0 16.7-.1 55.9 3.6 102.7.1 114.9-45.4 2.8-9.5 4.7-8.6 7.6-8.5 5.4.1 6.6 8.9 8.2 21.6 1.5 12.4 3.3 26.4 13.3 34.1 9.1 7.5 25.4 7.7 31.9-1.5 13 3.3 10.9 22.5-2.7 22.7h-6.5v-4.6c-.3-7.7-11.4-7.7-11.6 0v29.4c-3.1 102.6-153.2 102.6-156.3.1zm48.4 104.6v-20.4c18.5 6.6 41 6.6 59.5 0 .3 18.9-3.7 37 17.9 45.4-22.6 32.9-72.6 32.8-95.1-.1 10.3-3.6 17.7-13.4 17.7-24.9zm75.9 43.8c-57.3 175.6-31.4 185.3-89.2 2.4 24.6 21.1 66.2 19.6 89.2-2.4zm-110.2-50.2h22.7c.7 10.6-1.6 18-11.5 20.8-1.2-3.8-1.8-6-1.9-6.1-.7-2.2-2.7-3.9-5.2-4.1-16.4-1.4-33.7 6.1-28.8 22-8.4 3.1-16.1 6.4-23.1 9.9 2.9-23.9 23.2-42.5 47.8-42.5zm-43.3 133.2c-.2 13.9-20.9 13.9-21.1 0 .3-13.9 20.9-13.9 21.1 0zm-58.2 77.3c-4.5 0-8.2-3.7-8.2-8.2 0-.5.1-69.4 0-69.8-1.3-24.5 23.6-55.3 50-70.1v49.5c-24.6 6.9-20 43.2 5.8 43.6 25.8-.3 30.4-36.7 5.8-43.6v-56.1c10-5.3 20.2-9.5 29.4-12.9 2.6 3.5 9.3 9.5 9.2 12.6-.4 2.7-7 8.5-7 8.5-8.3 7.3-10.9 19-6.4 29.3l51 117.2zm142.4 0-53-121.9c-2.6-5.8-.9-12.5 4-16.4 13.1-10.3 13.6-21.2 1.5-33.2-9.2-10-11.5-15.7 6.1-16.8 6.6 21.4 37.6 122.2 48.1 159.2 2.2 7.8 8 16.2 17.3 16.2 7.9 0 14.8-6.3 18.1-16.4 10.8-38 41.4-137.5 48.1-159.1 17.6 1.1 15.3 6.8 6.1 16.8-12.2 12.1-11.6 22.9 1.5 33.2 4.9 3.9 6.6 10.5 4 16.4l-53.2 122.1h-48.6zm199.2-78.1-.1 69.8c0 4.5-3.7 8.2-8.2 8.2h-129.6l51.1-117.3c4.5-10.2 1.9-22-6.4-29.3 0 0-6.6-5.8-7-8.5-.1-3.1 6.5-9.1 9.1-12.5 8.6 3.2 18 7.1 27.4 11.9v71.7c-16.7 2.5-29.6 16.9-29.6 34.3v20.8c0 3.2 2.6 5.8 5.8 5.8s5.8-2.6 5.8-5.8v-20.8c0-13.3 11.3-23.8 24.5-23 12.7 0 23 10.3 23 23v20.8c0 3.2 2.6 5.8 5.8 5.8s5.8-2.6 5.8-5.8v-20.8c0-17.4-12.9-31.8-29.6-34.3v-65.3c27.2 14.7 53.4 45.9 52.2 71.3z"/></g></g></svg>